<svg id="visual" viewBox="0 0 900 600" width="900" height="600" xmlns="http://www.w3.org/2000/svg" xmlns:xlink="http://www.w3.org/1999/xlink" version="1.1"><path d="M0 145L7.8 144C15.7 143 31.3 141 47.2 142C63 143 79 147 94.8 142C110.7 137 126.3 123 142 102C157.7 81 173.3 53 189.2 68C205 83 221 141 236.8 142C252.7 143 268.3 87 284.2 87C300 87 316 143 331.8 165C347.7 187 363.3 175 379 160C394.7 145 410.3 127 426.2 125C442 123 458 137 473.8 135C489.7 133 505.3 115 521 107C536.7 99 552.3 101 568.2 111C584 121 600 139 615.8 137C631.7 135 647.3 113 663.2 109C679 105 695 119 710.8 143C726.7 167 742.3 201 758 196C773.7 191 789.3 147 805.2 138C821 129 837 155 852.8 156C868.7 157 884.3 133 892.2 121L900 109L900 0L892.2 0C884.3 0 868.7 0 852.8 0C837 0 821 0 805.2 0C789.3 0 773.7 0 758 0C742.3 0 726.7 0 710.8 0C695 0 679 0 663.2 0C647.3 0 631.7 0 615.8 0C600 0 584 0 568.2 0C552.3 0 536.7 0 521 0C505.3 0 489.7 0 473.8 0C458 0 442 0 426.2 0C410.3 0 394.7 0 379 0C363.3 0 347.7 0 331.8 0C316 0 300 0 284.2 0C268.3 0 252.7 0 236.8 0C221 0 205 0 189.2 0C173.3 0 157.7 0 142 0C126.3 0 110.7 0 94.8 0C79 0 63 0 47.2 0C31.3 0 15.7 0 7.8 0L0 0Z" fill="#004cbb"></path><path d="M0 289L7.8 276C15.7 263 31.3 237 47.2 226C63 215 79 219 94.8 218C110.7 217 126.3 211 142 195C157.7 179 173.3 153 189.2 161C205 169 221 211 236.8 218C252.7 225 268.3 197 284.2 192C300 187 316 205 331.8 218C347.7 231 363.3 239 379 235C394.7 231 410.3 215 426.2 206C442 197 458 195 473.8 191C489.7 187 505.3 181 521 188C536.7 195 552.3 215 568.2 229C584 243 600 251 615.8 247C631.7 243 647.3 227 663.2 218C679 209 695 207 710.8 222C726.7 237 742.3 269 758 272C773.7 275 789.3 249 805.2 246C821 243 837 263 852.8 260C868.7 257 884.3 231 892.2 218L900 205L900 107L892.2 119C884.3 131 868.7 155 852.8 154C837 153 821 127 805.2 136C789.3 145 773.7 189 758 194C742.3 199 726.7 165 710.8 141C695 117 679 103 663.2 107C647.3 111 631.7 133 615.8 135C600 137 584 119 568.2 109C552.3 99 536.7 97 521 105C505.3 113 489.7 131 473.8 133C458 135 442 121 426.2 123C410.3 125 394.7 143 379 158C363.3 173 347.7 185 331.8 163C316 141 300 85 284.2 85C268.3 85 252.7 141 236.8 140C221 139 205 81 189.2 66C173.3 51 157.7 79 142 100C126.3 121 110.7 135 94.8 140C79 145 63 141 47.2 140C31.3 139 15.7 141 7.8 142L0 143Z" fill="#0058d9"></path><path d="M0 343L7.8 325C15.7 307 31.3 271 47.2 263C63 255 79 275 94.8 277C110.7 279 126.3 263 142 242C157.7 221 173.3 195 189.2 201C205 207 221 245 236.8 253C252.7 261 268.3 239 284.2 235C300 231 316 245 331.8 252C347.7 259 363.3 259 379 260C394.7 261 410.3 263 426.2 258C442 253 458 241 473.8 231C489.7 221 505.3 213 521 216C536.7 219 552.3 233 568.2 253C584 273 600 299 615.8 298C631.7 297 647.3 269 663.2 259C679 249 695 257 710.8 271C726.7 285 742.3 305 758 304C773.7 303 789.3 281 805.2 281C821 281 837 303 852.8 304C868.7 305 884.3 285 892.2 275L900 265L900 203L892.2 216C884.3 229 868.7 255 852.8 258C837 261 821 241 805.2 244C789.3 247 773.7 273 758 270C742.3 267 726.7 235 710.8 220C695 205 679 207 663.2 216C647.3 225 631.7 241 615.8 245C600 249 584 241 568.2 227C552.3 213 536.7 193 521 186C505.3 179 489.7 185 473.8 189C458 193 442 195 426.2 204C410.3 213 394.7 229 379 233C363.3 237 347.7 229 331.8 216C316 203 300 185 284.2 190C268.3 195 252.7 223 236.8 216C221 209 205 167 189.2 159C173.3 151 157.7 177 142 193C126.3 209 110.7 215 94.8 216C79 217 63 213 47.2 224C31.3 235 15.7 261 7.8 274L0 287Z" fill="#0064f9"></path><path d="M0 349L7.8 336C15.7 323 31.3 297 47.2 293C63 289 79 307 94.8 308C110.7 309 126.3 293 142 272C157.7 251 173.3 225 189.2 229C205 233 221 267 236.8 271C252.7 275 268.3 249 284.2 247C300 245 316 267 331.8 279C347.7 291 363.3 293 379 291C394.7 289 410.3 283 426.2 273C442 263 458 249 473.8 239C489.7 229 505.3 223 521 228C536.7 233 552.3 249 568.2 270C584 291 600 317 615.8 319C631.7 321 647.3 299 663.2 289C679 279 695 281 710.8 293C726.7 305 742.3 327 758 329C773.7 331 789.3 313 805.2 313C821 313 837 331 852.8 331C868.7 331 884.3 313 892.2 304L900 295L900 263L892.2 273C884.3 283 868.7 303 852.8 302C837 301 821 279 805.2 279C789.3 279 773.7 301 758 302C742.3 303 726.7 283 710.8 269C695 255 679 247 663.2 257C647.3 267 631.7 295 615.8 296C600 297 584 271 568.2 251C552.3 231 536.7 217 521 214C505.3 211 489.7 219 473.8 229C458 239 442 251 426.2 256C410.3 261 394.7 259 379 258C363.3 257 347.7 257 331.8 250C316 243 300 229 284.2 233C268.3 237 252.7 259 236.8 251C221 243 205 205 189.2 199C173.3 193 157.7 219 142 240C126.3 261 110.7 277 94.8 275C79 273 63 253 47.2 261C31.3 269 15.7 305 7.8 323L0 341Z" fill="#3079ff"></path><path d="M0 487L7.8 478C15.7 469 31.3 451 47.2 433C63 415 79 397 94.8 380C110.7 363 126.3 347 142 340C157.7 333 173.3 335 189.2 337C205 339 221 341 236.8 353C252.7 365 268.3 387 284.2 386C300 385 316 361 331.8 365C347.7 369 363.3 401 379 401C394.7 401 410.3 369 426.2 349C442 329 458 321 473.8 331C489.7 341 505.3 369 521 384C536.7 399 552.3 401 568.2 409C584 417 600 431 615.8 425C631.7 419 647.3 393 663.2 376C679 359 695 351 710.8 357C726.7 363 742.3 383 758 389C773.7 395 789.3 387 805.2 386C821 385 837 391 852.8 391C868.7 391 884.3 385 892.2 382L900 379L900 293L892.2 302C884.3 311 868.7 329 852.8 329C837 329 821 311 805.2 311C789.3 311 773.7 329 758 327C742.3 325 726.7 303 710.8 291C695 279 679 277 663.2 287C647.3 297 631.7 319 615.8 317C600 315 584 289 568.2 268C552.3 247 536.7 231 521 226C505.3 221 489.7 227 473.8 237C458 247 442 261 426.2 271C410.3 281 394.7 287 379 289C363.3 291 347.7 289 331.8 277C316 265 300 243 284.2 245C268.3 247 252.7 273 236.8 269C221 265 205 231 189.2 227C173.3 223 157.7 249 142 270C126.3 291 110.7 307 94.8 306C79 305 63 287 47.2 291C31.3 295 15.7 321 7.8 334L0 347Z" fill="#548fff"></path><path d="M0 511L7.8 501C15.7 491 31.3 471 47.2 452C63 433 79 415 94.8 401C110.7 387 126.3 377 142 369C157.7 361 173.3 355 189.2 358C205 361 221 373 236.8 388C252.7 403 268.3 421 284.2 415C300 409 316 379 331.8 382C347.7 385 363.3 421 379 425C394.7 429 410.3 401 426.2 382C442 363 458 353 473.8 360C489.7 367 505.3 391 521 404C536.7 417 552.3 419 568.2 427C584 435 600 449 615.8 448C631.7 447 647.3 431 663.2 417C679 403 695 391 710.8 397C726.7 403 742.3 427 758 437C773.7 447 789.3 443 805.2 435C821 427 837 415 852.8 411C868.7 407 884.3 411 892.2 413L900 415L900 377L892.2 380C884.3 383 868.7 389 852.8 389C837 389 821 383 805.2 384C789.3 385 773.7 393 758 387C742.3 381 726.7 361 710.8 355C695 349 679 357 663.2 374C647.3 391 631.7 417 615.8 423C600 429 584 415 568.2 407C552.3 399 536.7 397 521 382C505.3 367 489.7 339 473.8 329C458 319 442 327 426.2 347C410.3 367 394.7 399 379 399C363.3 399 347.7 367 331.8 363C316 359 300 383 284.2 384C268.3 385 252.7 363 236.8 351C221 339 205 337 189.2 335C173.3 333 157.7 331 142 338C126.3 345 110.7 361 94.8 378C79 395 63 413 47.2 431C31.3 449 15.7 467 7.8 476L0 485Z" fill="#6198ff"></path><path d="M0 529L7.8 517C15.7 505 31.3 481 47.2 461C63 441 79 425 94.8 417C110.7 409 126.3 409 142 405C157.7 401 173.3 393 189.2 393C205 393 221 401 236.8 412C252.7 423 268.3 437 284.2 433C300 429 316 407 331.8 413C347.7 419 363.3 453 379 458C394.7 463 410.3 439 426.2 416C442 393 458 371 473.8 376C489.7 381 505.3 413 521 427C536.7 441 552.3 437 568.2 444C584 451 600 469 615.8 470C631.7 471 647.3 455 663.2 439C679 423 695 407 710.8 412C726.7 417 742.3 443 758 453C773.7 463 789.3 457 805.2 449C821 441 837 431 852.8 432C868.7 433 884.3 445 892.2 451L900 457L900 413L892.2 411C884.3 409 868.7 405 852.8 409C837 413 821 425 805.2 433C789.3 441 773.7 445 758 435C742.3 425 726.7 401 710.8 395C695 389 679 401 663.2 415C647.3 429 631.7 445 615.8 446C600 447 584 433 568.2 425C552.3 417 536.7 415 521 402C505.3 389 489.7 365 473.8 358C458 351 442 361 426.2 380C410.3 399 394.7 427 379 423C363.3 419 347.7 383 331.8 380C316 377 300 407 284.2 413C268.3 419 252.7 401 236.8 386C221 371 205 359 189.2 356C173.3 353 157.7 359 142 367C126.3 375 110.7 385 94.8 399C79 413 63 431 47.2 450C31.3 469 15.7 489 7.8 499L0 509Z" fill="#6198ff"></path><path d="M0 553L7.8 539C15.7 525 31.3 497 47.2 477C63 457 79 445 94.8 445C110.7 445 126.3 457 142 460C157.7 463 173.3 457 189.2 458C205 459 221 467 236.8 476C252.7 485 268.3 495 284.2 493C300 491 316 477 331.8 476C347.7 475 363.3 487 379 483C394.7 479 410.3 459 426.2 448C442 437 458 435 473.8 443C489.7 451 505.3 469 521 477C536.7 485 552.3 483 568.2 488C584 493 600 505 615.8 500C631.7 495 647.3 473 663.2 456C679 439 695 427 710.8 433C726.7 439 742.3 463 758 475C773.7 487 789.3 487 805.2 480C821 473 837 459 852.8 463C868.7 467 884.3 489 892.2 500L900 511L900 455L892.2 449C884.3 443 868.7 431 852.8 430C837 429 821 439 805.2 447C789.3 455 773.7 461 758 451C742.3 441 726.7 415 710.8 410C695 405 679 421 663.2 437C647.3 453 631.7 469 615.8 468C600 467 584 449 568.2 442C552.3 435 536.7 439 521 425C505.3 411 489.7 379 473.8 374C458 369 442 391 426.2 414C410.3 437 394.7 461 379 456C363.3 451 347.7 417 331.8 411C316 405 300 427 284.2 431C268.3 435 252.7 421 236.8 410C221 399 205 391 189.2 391C173.3 391 157.7 399 142 403C126.3 407 110.7 407 94.8 415C79 423 63 439 47.2 459C31.3 479 15.7 503 7.8 515L0 527Z" fill="#548fff"></path><path d="M0 559L7.8 547C15.7 535 31.3 511 47.2 493C63 475 79 463 94.8 467C110.7 471 126.3 491 142 493C157.7 495 173.3 479 189.2 476C205 473 221 483 236.8 494C252.7 505 268.3 517 284.2 516C300 515 316 501 331.8 498C347.7 495 363.3 503 379 502C394.7 501 410.3 491 426.2 484C442 477 458 473 473.8 480C489.7 487 505.3 505 521 509C536.7 513 552.3 503 568.2 503C584 503 600 513 615.8 511C631.7 509 647.3 495 663.2 482C679 469 695 457 710.8 465C726.7 473 742.3 501 758 513C773.7 525 789.3 521 805.2 510C821 499 837 481 852.8 482C868.7 483 884.3 503 892.2 513L900 523L900 509L892.2 498C884.3 487 868.7 465 852.8 461C837 457 821 471 805.2 478C789.3 485 773.7 485 758 473C742.3 461 726.7 437 710.8 431C695 425 679 437 663.2 454C647.3 471 631.7 493 615.8 498C600 503 584 491 568.2 486C552.3 481 536.7 483 521 475C505.3 467 489.7 449 473.8 441C458 433 442 435 426.2 446C410.3 457 394.7 477 379 481C363.3 485 347.7 473 331.8 474C316 475 300 489 284.2 491C268.3 493 252.7 483 236.8 474C221 465 205 457 189.2 456C173.3 455 157.7 461 142 458C126.3 455 110.7 443 94.8 443C79 443 63 455 47.2 475C31.3 495 15.7 523 7.8 537L0 551Z" fill="#3079ff"></path><path d="M0 583L7.8 575C15.7 567 31.3 551 47.2 545C63 539 79 543 94.8 545C110.7 547 126.3 547 142 545C157.7 543 173.3 539 189.2 542C205 545 221 555 236.8 559C252.7 563 268.3 561 284.2 556C300 551 316 543 331.8 543C347.7 543 363.3 551 379 556C394.7 561 410.3 563 426.2 562C442 561 458 557 473.8 555C489.7 553 505.3 553 521 550C536.7 547 552.3 541 568.2 539C584 537 600 539 615.8 542C631.7 545 647.3 549 663.2 545C679 541 695 529 710.8 529C726.7 529 742.3 541 758 549C773.7 557 789.3 561 805.2 553C821 545 837 525 852.8 526C868.7 527 884.3 549 892.2 560L900 571L900 521L892.2 511C884.3 501 868.7 481 852.8 480C837 479 821 497 805.2 508C789.3 519 773.7 523 758 511C742.3 499 726.7 471 710.8 463C695 455 679 467 663.2 480C647.3 493 631.7 507 615.8 509C600 511 584 501 568.2 501C552.3 501 536.7 511 521 507C505.3 503 489.7 485 473.8 478C458 471 442 475 426.2 482C410.3 489 394.7 499 379 500C363.3 501 347.7 493 331.8 496C316 499 300 513 284.2 514C268.3 515 252.7 503 236.8 492C221 481 205 471 189.2 474C173.3 477 157.7 493 142 491C126.3 489 110.7 469 94.8 465C79 461 63 473 47.2 491C31.3 509 15.7 533 7.8 545L0 557Z" fill="#0064f9"></path><path d="M0 589L7.8 583C15.7 577 31.3 565 47.2 564C63 563 79 573 94.8 575C110.7 577 126.3 571 142 570C157.7 569 173.3 573 189.2 575C205 577 221 577 236.8 577C252.7 577 268.3 577 284.2 574C300 571 316 565 331.8 568C347.7 571 363.3 583 379 588C394.7 593 410.3 591 426.2 587C442 583 458 577 473.8 575C489.7 573 505.3 575 521 574C536.7 573 552.3 569 568.2 567C584 565 600 565 615.8 569C631.7 573 647.3 581 663.2 580C679 579 695 569 710.8 565C726.7 561 742.3 563 758 565C773.7 567 789.3 569 805.2 566C821 563 837 555 852.8 558C868.7 561 884.3 575 892.2 582L900 589L900 569L892.2 558C884.3 547 868.7 525 852.8 524C837 523 821 543 805.2 551C789.3 559 773.7 555 758 547C742.3 539 726.7 527 710.8 527C695 527 679 539 663.2 543C647.3 547 631.7 543 615.8 540C600 537 584 535 568.2 537C552.3 539 536.7 545 521 548C505.3 551 489.7 551 473.8 553C458 555 442 559 426.2 560C410.3 561 394.7 559 379 554C363.3 549 347.7 541 331.8 541C316 541 300 549 284.2 554C268.3 559 252.7 561 236.8 557C221 553 205 543 189.2 540C173.3 537 157.7 541 142 543C126.3 545 110.7 545 94.8 543C79 541 63 537 47.2 543C31.3 549 15.7 565 7.8 573L0 581Z" fill="#0058d9"></path><path d="M0 601L7.8 601C15.7 601 31.3 601 47.2 601C63 601 79 601 94.8 601C110.7 601 126.3 601 142 601C157.7 601 173.3 601 189.2 601C205 601 221 601 236.8 601C252.7 601 268.3 601 284.2 601C300 601 316 601 331.8 601C347.7 601 363.3 601 379 601C394.7 601 410.3 601 426.2 601C442 601 458 601 473.8 601C489.7 601 505.3 601 521 601C536.7 601 552.3 601 568.2 601C584 601 600 601 615.8 601C631.7 601 647.3 601 663.2 601C679 601 695 601 710.8 601C726.7 601 742.3 601 758 601C773.7 601 789.3 601 805.2 601C821 601 837 601 852.8 601C868.7 601 884.3 601 892.2 601L900 601L900 587L892.2 580C884.3 573 868.7 559 852.8 556C837 553 821 561 805.2 564C789.3 567 773.7 565 758 563C742.3 561 726.7 559 710.8 563C695 567 679 577 663.2 578C647.3 579 631.7 571 615.8 567C600 563 584 563 568.2 565C552.3 567 536.7 571 521 572C505.3 573 489.7 571 473.8 573C458 575 442 581 426.2 585C410.3 589 394.7 591 379 586C363.3 581 347.7 569 331.8 566C316 563 300 569 284.2 572C268.3 575 252.7 575 236.8 575C221 575 205 575 189.2 573C173.3 571 157.7 567 142 568C126.3 569 110.7 575 94.8 573C79 571 63 561 47.2 562C31.3 563 15.7 575 7.8 581L0 587Z" fill="#004cbb"></path></svg>